<svg width="83" height="83" viewBox="0 0 83 83" fill="none" xmlns="http://www.w3.org/2000/svg">
<g filter="url(#filter0_d)">
<circle cx="41.5" cy="37.5" r="37.5" fill="#16C79A"/>
<path d="M20 58L36.2193 17L45.2719 36.7407L50.9298 27.6296L63 58" stroke="white" stroke-width="3"/>
<path d="M45.4931 52.7187C45.4493 52.6675 45.3933 52.642 45.3252 52.642H44.0763C43.9934 52.1706 43.8376 51.7614 43.6088 51.4148H45.3105C45.3788 51.4148 45.4346 51.3893 45.4786 51.3382C45.5222 51.2871 45.5441 51.2217 45.5441 51.1422V50.2727C45.5441 50.1931 45.5222 50.1279 45.4786 50.0767C45.4346 50.0256 45.3787 50 45.3104 50H39.2337C39.1655 50 39.1095 50.0256 39.0657 50.0767C39.022 50.1278 39 50.1931 39 50.2727V51.4062C39 51.48 39.0231 51.5439 39.0694 51.5979C39.1156 51.6519 39.1704 51.6789 39.2337 51.6789H40.2928C41.3201 51.6789 41.9726 51.9998 42.2501 52.6419H39.2337C39.1655 52.6419 39.1095 52.6674 39.0657 52.7185C39.022 52.7697 39 52.835 39 52.9146V53.7839C39 53.8635 39.0219 53.9288 39.0657 53.9798C39.1095 54.031 39.1656 54.0565 39.2337 54.0565H42.3525C42.2454 54.5225 41.9958 54.8776 41.6038 55.1219C41.2117 55.3663 40.6945 55.4884 40.0517 55.4884H39.2337C39.1704 55.4884 39.1156 55.5154 39.0694 55.5694C39.0231 55.6234 39 55.6873 39 55.7611V56.8436C39 56.9176 39.0219 56.98 39.0657 57.0311C40.0005 58.1902 41.213 59.8122 42.703 61.8975C42.7469 61.9658 42.8077 61.9998 42.8856 61.9998H44.3098C44.4122 61.9998 44.4828 61.9488 44.5217 61.8463C44.5704 61.7441 44.5608 61.6475 44.4924 61.5565C43.0708 59.5224 41.9532 57.9997 41.14 56.9884C41.9678 56.8748 42.6398 56.5623 43.156 56.051C43.672 55.5397 43.9861 54.8748 44.0981 54.0566H45.3252C45.3933 54.0566 45.4493 54.0312 45.4931 53.98C45.5369 53.929 45.5589 53.8636 45.5589 53.7841V52.9148C45.5589 52.8351 45.5369 52.7698 45.4931 52.7187Z" fill="white"/>
</g>
<defs>
<filter id="filter0_d" x="0" y="0" width="83" height="83" filterUnits="userSpaceOnUse" color-interpolation-filters="sRGB">
<feFlood flood-opacity="0" result="BackgroundImageFix"/>
<feColorMatrix in="SourceAlpha" type="matrix" values="0 0 0 0 0 0 0 0 0 0 0 0 0 0 0 0 0 0 127 0"/>
<feOffset dy="4"/>
<feGaussianBlur stdDeviation="2"/>
<feColorMatrix type="matrix" values="0 0 0 0 0 0 0 0 0 0 0 0 0 0 0 0 0 0 0.25 0"/>
<feBlend mode="normal" in2="BackgroundImageFix" result="effect1_dropShadow"/>
<feBlend mode="normal" in="SourceGraphic" in2="effect1_dropShadow" result="shape"/>
</filter>
</defs>
</svg>
