<svg width="1024" height="1024" viewBox="0 0 1024 1024" fill="none" xmlns="http://www.w3.org/2000/svg">
<circle cx="512" cy="512" r="512" fill="#16C79A"/>
<path d="M218.453 791.893L439.901 232.107L563.499 501.634L640.748 377.236L805.547 791.893" stroke="white" stroke-width="35"/>
<path d="M566.519 719.785C565.921 719.087 565.156 718.739 564.227 718.739H547.175C546.044 712.302 543.916 706.715 540.792 701.983H564.026C564.958 701.983 565.721 701.634 566.321 700.938C566.916 700.24 567.215 699.347 567.215 698.261V686.39C567.215 685.303 566.916 684.412 566.321 683.713C565.72 683.016 564.958 682.666 564.025 682.666H481.057C480.126 682.666 479.362 683.016 478.764 683.713C478.167 684.412 477.867 685.303 477.867 686.389V701.865C477.867 702.874 478.183 703.746 478.814 704.483C479.446 705.22 480.193 705.588 481.057 705.588H495.517C509.544 705.588 518.453 709.97 522.242 718.737H481.057C480.126 718.737 479.361 719.085 478.764 719.783C478.167 720.482 477.867 721.373 477.867 722.46V734.33C477.867 735.415 478.165 736.308 478.764 737.004C479.362 737.703 480.128 738.051 481.057 738.051H523.64C522.177 744.414 518.77 749.261 513.417 752.597C508.065 755.934 501.002 757.602 492.226 757.602H481.057C480.193 757.602 479.446 757.971 478.814 758.707C478.182 759.444 477.867 760.317 477.867 761.325V776.104C477.867 777.114 478.165 777.967 478.764 778.665C491.528 794.489 508.082 816.635 528.425 845.107C529.024 846.039 529.855 846.504 530.919 846.504H550.364C551.761 846.504 552.726 845.807 553.256 844.408C553.921 843.012 553.79 841.693 552.857 840.452C533.447 812.679 518.188 791.89 507.085 778.082C518.387 776.531 527.562 772.263 534.609 765.283C541.656 758.302 545.943 749.224 547.473 738.053H564.227C565.156 738.053 565.922 737.705 566.519 737.007C567.118 736.31 567.418 735.417 567.418 734.332V722.463C567.418 721.375 567.118 720.484 566.519 719.785Z" fill="white"/>
</svg>
