<svg width="35" height="35" viewBox="0 0 35 35" fill="none" xmlns="http://www.w3.org/2000/svg">
<path d="M26.25 11.6667H27.7083C29.2554 11.6667 30.7392 12.2812 31.8331 13.3752C32.9271 14.4692 33.5417 15.9529 33.5417 17.5C33.5417 19.0471 32.9271 20.5308 31.8331 21.6248C30.7392 22.7188 29.2554 23.3333 27.7083 23.3333H26.25" stroke="#16C79A" stroke-width="2" stroke-linecap="round" stroke-linejoin="round"/>
<path d="M2.91663 11.6667H26.25V24.7917C26.25 26.3388 25.6354 27.8225 24.5414 28.9165C23.4475 30.0104 21.9637 30.625 20.4166 30.625H8.74996C7.20286 30.625 5.71913 30.0104 4.62517 28.9165C3.53121 27.8225 2.91663 26.3388 2.91663 24.7917V11.6667Z" stroke="#16C79A" stroke-width="2" stroke-linecap="round" stroke-linejoin="round"/>
<path d="M8.75 1.45833V5.83333" stroke="#16C79A" stroke-width="2" stroke-linecap="round" stroke-linejoin="round"/>
<path d="M14.5834 1.45833V5.83333" stroke="#16C79A" stroke-width="2" stroke-linecap="round" stroke-linejoin="round"/>
<path d="M20.4166 1.45833V5.83333" stroke="#16C79A" stroke-width="2" stroke-linecap="round" stroke-linejoin="round"/>
</svg>
