<svg width="15" height="30" viewBox="0 0 15 30" fill="none" xmlns="http://www.w3.org/2000/svg">
<path d="M14.8495 6.79682C14.7494 6.66898 14.6212 6.60517 14.4655 6.60517H11.6093C11.4198 5.42657 11.0635 4.4035 10.5401 3.53707H14.4319C14.5881 3.53707 14.7158 3.47319 14.8163 3.34565C14.916 3.21788 14.9661 3.05437 14.9661 2.85557V0.681801C14.9661 0.482843 14.916 0.319632 14.8163 0.191719C14.7157 0.0641054 14.5879 0 14.4318 0H0.534446C0.378471 0 0.25052 0.0641054 0.150242 0.191645C0.0502561 0.319557 0 0.482768 0 0.681727V3.5155C0 3.70013 0.0528887 3.85991 0.158666 3.99484C0.264444 4.12976 0.389704 4.19723 0.534446 4.19723H2.95651C5.30602 4.19723 6.79826 4.99955 7.43292 6.6048H0.534446C0.378471 6.6048 0.250344 6.66861 0.150242 6.79644C0.0502561 6.92443 0 7.08757 0 7.28653V9.45999C0 9.6588 0.0500221 9.82224 0.150242 9.94978C0.25052 10.0778 0.378705 10.1414 0.534446 10.1414H7.66712C7.4221 11.3065 6.85132 12.1941 5.95479 12.805C5.05819 13.4159 3.87527 13.7213 2.40527 13.7213H0.534446C0.389704 13.7213 0.264444 13.7889 0.158666 13.9237C0.0528302 14.0587 0 14.2186 0 14.4031V17.1093C0 17.2942 0.0500221 17.4504 0.150242 17.5781C2.2882 20.4758 5.06112 24.5308 8.46864 29.7443C8.56898 29.9149 8.70811 30 8.88631 30H12.1434C12.3775 30 12.5391 29.8725 12.6279 29.6163C12.7392 29.3607 12.7174 29.1192 12.561 28.8918C9.30977 23.8065 6.75391 19.9997 4.8942 17.4714C6.78732 17.1873 8.32408 16.4059 9.50454 15.1278C10.6848 13.8495 11.403 12.1872 11.6593 10.1418H14.4655C14.6212 10.1418 14.7494 10.0781 14.8495 9.95015C14.9498 9.82261 15 9.65917 15 9.46037V7.28712C15 7.08794 14.9498 6.92473 14.8495 6.79682Z" fill="#EA2C62"/>
</svg>
