<svg width="40" height="40" viewBox="0 0 40 40" fill="none" xmlns="http://www.w3.org/2000/svg">
<path d="M20 21.6667C20.9205 21.6667 21.6667 20.9205 21.6667 20C21.6667 19.0795 20.9205 18.3333 20 18.3333C19.0796 18.3333 18.3334 19.0795 18.3334 20C18.3334 20.9205 19.0796 21.6667 20 21.6667Z" stroke="#FCEEF5" stroke-width="2" stroke-linecap="round" stroke-linejoin="round"/>
<path d="M31.6667 21.6667C32.5871 21.6667 33.3333 20.9205 33.3333 20C33.3333 19.0795 32.5871 18.3333 31.6667 18.3333C30.7462 18.3333 30 19.0795 30 20C30 20.9205 30.7462 21.6667 31.6667 21.6667Z" stroke="#FCEEF5" stroke-width="2" stroke-linecap="round" stroke-linejoin="round"/>
<path d="M8.33329 21.6667C9.25377 21.6667 9.99996 20.9205 9.99996 20C9.99996 19.0795 9.25377 18.3333 8.33329 18.3333C7.41282 18.3333 6.66663 19.0795 6.66663 20C6.66663 20.9205 7.41282 21.6667 8.33329 21.6667Z" stroke="#FCEEF5" stroke-width="2" stroke-linecap="round" stroke-linejoin="round"/>
</svg>
