<svg width="30" height="31" viewBox="0 0 30 31" fill="none" xmlns="http://www.w3.org/2000/svg">
<path d="M15.3334 29.5333C23.0654 29.5333 29.3334 23.2653 29.3334 15.5333C29.3334 7.80134 23.0654 1.53333 15.3334 1.53333C7.60139 1.53333 1.33337 7.80134 1.33337 15.5333C1.33337 23.2653 7.60139 29.5333 15.3334 29.5333Z" stroke="black" stroke-width="2" stroke-linecap="round" stroke-linejoin="round"/>
<path d="M22.6135 23.0093V21.2733C22.6135 20.3525 22.2477 19.4694 21.5965 18.8183C20.9454 18.1671 20.0623 17.8013 19.1415 17.8013H12.1975C11.2766 17.8013 10.3935 18.1671 9.74239 18.8183C9.09126 19.4694 8.72546 20.3525 8.72546 21.2733V23.0093" stroke="black" stroke-width="2" stroke-linecap="round" stroke-linejoin="round"/>
<path d="M15.6694 14.3293C17.5869 14.3293 19.1414 12.7749 19.1414 10.8573C19.1414 8.93981 17.5869 7.38535 15.6694 7.38535C13.7519 7.38535 12.1974 8.93981 12.1974 10.8573C12.1974 12.7749 13.7519 14.3293 15.6694 14.3293Z" stroke="black" stroke-width="2" stroke-linecap="round" stroke-linejoin="round"/>
</svg>
